<?xml version="1.0" encoding="utf-8"?>

<svg xmlns="http://www.w3.org/2000/svg" xmlns:xlink="http://www.w3.org/1999/xlink" width="691" height="611" version="1.1">
  <defs>
    <clipPath id="QBRJoDBRUzbE">
      <path fill="none" stroke="none" d="M 0 0 L 891 0 L 891 911 L 0 911 L 0 0 Z"/>
    </clipPath>
  </defs>
  <g clip-path="url(&quot;#QBRJoDBRUzbE&quot;)" transform="scale(1)">
    <g>
     <path fill="none" stroke="rgb(0, 0, 0)" stroke-linecap="round" stroke-linejoin="round" stroke-miterlimit="10" stroke-opacity="0.698039" stroke-width="2.5" d="M 213.392 356.47 L 348.566 153.708" paint-order="fill stroke markers"/>
      <path fill="rgb(0, 0, 0)" fill-opacity="0.698039" fill-rule="evenodd" stroke="none" d="M 357.996 139.563 L 352.102 156.066 L 345.03 151.351 Z" paint-order="stroke fill markers"/>
      <text font-family="geogebra-sans-serif, sans-serif" font-size="16px" font-style="normal" font-weight="normal" text-decoration="normal" dominant-baseline="alphabetic" fill="rgb(0, 0, 0)" fill-opacity="1" stroke="none" text-anchor="start" x="282" y="245">u</text>
      <text font-family="geogebra-sans-serif, sans-serif" font-size="16px" font-style="normal" font-weight="normal" text-decoration="normal" dominant-baseline="alphabetic" fill="none" stroke="rgb(255, 255, 255)" stroke-linejoin="bevel" stroke-miterlimit="10" stroke-opacity="1" stroke-width="3" text-anchor="start" x="282" y="245">u</text>
      <text font-family="geogebra-sans-serif, sans-serif" font-size="16px" font-style="normal" font-weight="normal" text-decoration="normal" dominant-baseline="alphabetic" fill="rgb(0, 0, 0)" fill-opacity="1" stroke="none" text-anchor="start" x="282" y="245">u</text>
      <path fill="none" stroke="rgb(0, 0, 0)" stroke-linecap="round" stroke-linejoin="round" stroke-miterlimit="10" stroke-opacity="0.698039" stroke-width="2.5" d="M 213.392 356.47 L 342.791 421.169" paint-order="fill stroke markers"/>
      <path fill="rgb(0, 0, 0)" fill-opacity="0.698039" fill-rule="evenodd" stroke="none" d="M 357.996 428.772 L 340.89 424.971 L 344.691 417.368 Z" paint-order="stroke fill markers"/>
      <text font-family="geogebra-sans-serif, sans-serif" font-size="16px" font-style="normal" font-weight="normal" text-decoration="normal" dominant-baseline="alphabetic" fill="rgb(0, 0, 0)" fill-opacity="1" stroke="none" text-anchor="start" x="287" y="388">v</text>
      <text font-family="geogebra-sans-serif, sans-serif" font-size="16px" font-style="normal" font-weight="normal" text-decoration="normal" dominant-baseline="alphabetic" fill="none" stroke="rgb(255, 255, 255)" stroke-linejoin="bevel" stroke-miterlimit="10" stroke-opacity="1" stroke-width="3" text-anchor="start" x="287" y="388">v</text>
      <text font-family="geogebra-sans-serif, sans-serif" font-size="16px" font-style="normal" font-weight="normal" text-decoration="normal" dominant-baseline="alphabetic" fill="rgb(0, 0, 0)" fill-opacity="1" stroke="none" text-anchor="start" x="287" y="388">v</text>
      <path fill="none" stroke="rgb(0, 0, 0)" stroke-linecap="round" stroke-linejoin="round" stroke-miterlimit="10" stroke-opacity="0.698039" stroke-width="2.5" d="M 213.392 356.47 L 487.395 219.468" paint-order="fill stroke markers"/>
      <path fill="rgb(0, 0, 0)" fill-opacity="0.698039" fill-rule="evenodd" stroke="none" d="M 502.6 211.865 L 489.296 223.269 L 485.494 215.667 Z" paint-order="stroke fill markers"/>
      <text font-family="geogebra-sans-serif, sans-serif" font-size="16px" font-style="normal" font-weight="normal" text-decoration="normal" dominant-baseline="alphabetic" fill="rgb(0, 0, 0)" fill-opacity="1" stroke="none" text-anchor="start" x="356" y="280">w</text>
      <text font-family="geogebra-sans-serif, sans-serif" font-size="16px" font-style="normal" font-weight="normal" text-decoration="normal" dominant-baseline="alphabetic" fill="none" stroke="rgb(255, 255, 255)" stroke-linejoin="bevel" stroke-miterlimit="10" stroke-opacity="1" stroke-width="3" text-anchor="start" x="356" y="280">w</text>
      <text font-family="geogebra-sans-serif, sans-serif" font-size="16px" font-style="normal" font-weight="normal" text-decoration="normal" dominant-baseline="alphabetic" fill="rgb(0, 0, 0)" fill-opacity="1" stroke="none" text-anchor="start" x="356" y="280">w</text>
      <path fill="rgb(77, 77, 255)" fill-opacity="1" stroke="none" d="M 218.392 356.47 C 218.392 359.231 216.153 361.47 213.392 361.47 C 210.63 361.47 208.392 359.231 208.392 356.47 C 208.392 353.708 210.63 351.47 213.392 351.47 C 216.153 351.47 218.392 353.708 218.392 356.47 Z" paint-order="stroke fill markers"/>
      <path fill="none" stroke="rgb(0, 0, 0)" stroke-linecap="round" stroke-linejoin="round" stroke-miterlimit="10" stroke-opacity="1" d="M 218.392 356.47 C 218.392 359.231 216.153 361.47 213.392 361.47 C 210.63 361.47 208.392 359.231 208.392 356.47 C 208.392 353.708 210.63 351.47 213.392 351.47 C 216.153 351.47 218.392 353.708 218.392 356.47 Z" paint-order="fill stroke markers"/>
      <text font-family="geogebra-sans-serif, sans-serif" font-size="16px" font-style="normal" font-weight="normal" text-decoration="normal" dominant-baseline="alphabetic" fill="rgb(77, 77, 255)" fill-opacity="1" stroke="none" text-anchor="start" x="217" y="346">O</text>
      <text font-family="geogebra-sans-serif, sans-serif" font-size="16px" font-style="normal" font-weight="normal" text-decoration="normal" dominant-baseline="alphabetic" fill="none" stroke="rgb(255, 255, 255)" stroke-linejoin="bevel" stroke-miterlimit="10" stroke-opacity="1" stroke-width="3" text-anchor="start" x="217" y="346">O</text>
      <text font-family="geogebra-sans-serif, sans-serif" font-size="16px" font-style="normal" font-weight="normal" text-decoration="normal" dominant-baseline="alphabetic" fill="rgb(77, 77, 255)" fill-opacity="1" stroke="none" text-anchor="start" x="217" y="346">O</text>
      <path fill="rgb(77, 77, 255)" fill-opacity="1" stroke="none" d="M 362.996 139.563 C 362.996 142.325 360.757 144.563 357.996 144.563 C 355.234 144.563 352.996 142.325 352.996 139.563 C 352.996 136.802 355.234 134.563 357.996 134.563 C 360.757 134.563 362.996 136.802 362.996 139.563 Z" paint-order="stroke fill markers"/>
      <path fill="none" stroke="rgb(0, 0, 0)" stroke-linecap="round" stroke-linejoin="round" stroke-miterlimit="10" stroke-opacity="1" d="M 362.996 139.563 C 362.996 142.325 360.757 144.563 357.996 144.563 C 355.234 144.563 352.996 142.325 352.996 139.563 C 352.996 136.802 355.234 134.563 357.996 134.563 C 360.757 134.563 362.996 136.802 362.996 139.563 Z" paint-order="fill stroke markers"/>
      <text font-family="geogebra-sans-serif, sans-serif" font-size="16px" font-style="normal" font-weight="normal" text-decoration="normal" dominant-baseline="alphabetic" fill="rgb(77, 77, 255)" fill-opacity="1" stroke="none" text-anchor="start" x="362" y="130">B</text>
      <text font-family="geogebra-sans-serif, sans-serif" font-size="16px" font-style="normal" font-weight="normal" text-decoration="normal" dominant-baseline="alphabetic" fill="none" stroke="rgb(255, 255, 255)" stroke-linejoin="bevel" stroke-miterlimit="10" stroke-opacity="1" stroke-width="3" text-anchor="start" x="362" y="130">B</text>
      <text font-family="geogebra-sans-serif, sans-serif" font-size="16px" font-style="normal" font-weight="normal" text-decoration="normal" dominant-baseline="alphabetic" fill="rgb(77, 77, 255)" fill-opacity="1" stroke="none" text-anchor="start" x="362" y="130">B</text>
      <path fill="rgb(77, 77, 255)" fill-opacity="1" stroke="none" d="M 362.996 428.772 C 362.996 431.533 360.757 433.772 357.996 433.772 C 355.234 433.772 352.996 431.533 352.996 428.772 C 352.996 426.01 355.234 423.772 357.996 423.772 C 360.757 423.772 362.996 426.01 362.996 428.772 Z" paint-order="stroke fill markers"/>
      <path fill="none" stroke="rgb(0, 0, 0)" stroke-linecap="round" stroke-linejoin="round" stroke-miterlimit="10" stroke-opacity="1" d="M 362.996 428.772 C 362.996 431.533 360.757 433.772 357.996 433.772 C 355.234 433.772 352.996 431.533 352.996 428.772 C 352.996 426.01 355.234 423.772 357.996 423.772 C 360.757 423.772 362.996 426.01 362.996 428.772 Z" paint-order="fill stroke markers"/>
      <text font-family="geogebra-sans-serif, sans-serif" font-size="16px" font-style="normal" font-weight="normal" text-decoration="normal" dominant-baseline="alphabetic" fill="rgb(77, 77, 255)" fill-opacity="1" stroke="none" text-anchor="start" x="362" y="419">A</text>
      <text font-family="geogebra-sans-serif, sans-serif" font-size="16px" font-style="normal" font-weight="normal" text-decoration="normal" dominant-baseline="alphabetic" fill="none" stroke="rgb(255, 255, 255)" stroke-linejoin="bevel" stroke-miterlimit="10" stroke-opacity="1" stroke-width="3" text-anchor="start" x="362" y="419">A</text>
      <text font-family="geogebra-sans-serif, sans-serif" font-size="16px" font-style="normal" font-weight="normal" text-decoration="normal" dominant-baseline="alphabetic" fill="rgb(77, 77, 255)" fill-opacity="1" stroke="none" text-anchor="start" x="362" y="419">A</text>
    </g>
  </g>
</svg>
