<svg xmlns:xlink="http://www.w3.org/1999/xlink" width="608" height="651" xmlns="http://www.w3.org/2000/svg" version="1.1"><defs><clipPath id="TTqwUhOfaTPn"><path fill="none" stroke="none" d="M 0 0 L 808 0 L 808 911 L 0 911 L 0 0 Z" /></clipPath></defs><g clip-path="url(&quot;#TTqwUhOfaTPn&quot;)" transform="scale(1)"><g><rect fill="rgb(255, 255, 255)" fill-opacity="0" stroke="none" x="0" y="0" width="808" height="911" /><path fill="none" stroke="rgb(0, 0, 0)" stroke-linecap="round" stroke-linejoin="round" stroke-miterlimit="10" stroke-opacity="0.698039" stroke-width="2.5" d="M 161.556 498.771 L 409.906 126.247" paint-order="fill stroke markers" /><path fill="rgb(0, 0, 0)" fill-opacity="0.698039" fill-rule="evenodd" stroke="none" d="M 419.336 112.102 L 413.442 128.604 L 406.37 123.889 Z" paint-order="stroke fill markers" /><text font-family="geogebra-sans-serif, sans-serif" font-size="16px" font-style="normal" font-weight="normal" text-decoration="normal" dominant-baseline="alphabetic" fill="rgb(0, 0, 0)" fill-opacity="1" stroke="none" text-anchor="start" x="286" y="303">u</text><text font-family="geogebra-sans-serif, sans-serif" font-size="16px" font-style="normal" font-weight="normal" text-decoration="normal" dominant-baseline="alphabetic" fill="none" stroke="rgb(255, 255, 255)" stroke-linejoin="bevel" stroke-miterlimit="10" stroke-opacity="1" stroke-width="3" text-anchor="start" x="286" y="303">u</text><text font-family="geogebra-sans-serif, sans-serif" font-size="16px" font-style="normal" font-weight="normal" text-decoration="normal" dominant-baseline="alphabetic" fill="rgb(0, 0, 0)" fill-opacity="1" stroke="none" text-anchor="start" x="286" y="303">u</text><path fill="none" stroke="rgb(0, 0, 0)" stroke-linecap="round" stroke-linejoin="round" stroke-miterlimit="10" stroke-opacity="0.698039" stroke-width="2.5" d="M 161.556 498.771 L 404.131 620.059" paint-order="fill stroke markers" /><path fill="rgb(0, 0, 0)" fill-opacity="0.698039" fill-rule="evenodd" stroke="none" d="M 419.336 627.661 L 402.23 623.86 L 406.032 616.257 Z" paint-order="stroke fill markers" /><text font-family="geogebra-sans-serif, sans-serif" font-size="16px" font-style="normal" font-weight="normal" text-decoration="normal" dominant-baseline="alphabetic" fill="rgb(0, 0, 0)" fill-opacity="1" stroke="none" text-anchor="start" x="292" y="559">v</text><text font-family="geogebra-sans-serif, sans-serif" font-size="16px" font-style="normal" font-weight="normal" text-decoration="normal" dominant-baseline="alphabetic" fill="none" stroke="rgb(255, 255, 255)" stroke-linejoin="bevel" stroke-miterlimit="10" stroke-opacity="1" stroke-width="3" text-anchor="start" x="292" y="559">v</text><text font-family="geogebra-sans-serif, sans-serif" font-size="16px" font-style="normal" font-weight="normal" text-decoration="normal" dominant-baseline="alphabetic" fill="rgb(0, 0, 0)" fill-opacity="1" stroke="none" text-anchor="start" x="292" y="559">v</text><path fill="none" stroke="rgb(0, 0, 0)" stroke-linecap="round" stroke-linejoin="round" stroke-miterlimit="10" stroke-opacity="0.698039" stroke-width="2.5" d="M 419.336 112.102 L 419.336 610.661" paint-order="fill stroke markers" /><path fill="rgb(0, 0, 0)" fill-opacity="0.698039" fill-rule="evenodd" stroke="none" d="M 419.336 627.661 L 415.086 610.661 L 423.586 610.661 Z" paint-order="stroke fill markers" /><text font-family="geogebra-sans-serif, sans-serif" font-size="16px" font-style="normal" font-weight="normal" text-decoration="normal" dominant-baseline="alphabetic" fill="rgb(0, 0, 0)" fill-opacity="1" stroke="none" text-anchor="start" x="423" y="369">w</text><text font-family="geogebra-sans-serif, sans-serif" font-size="16px" font-style="normal" font-weight="normal" text-decoration="normal" dominant-baseline="alphabetic" fill="none" stroke="rgb(255, 255, 255)" stroke-linejoin="bevel" stroke-miterlimit="10" stroke-opacity="1" stroke-width="3" text-anchor="start" x="423" y="369">w</text><text font-family="geogebra-sans-serif, sans-serif" font-size="16px" font-style="normal" font-weight="normal" text-decoration="normal" dominant-baseline="alphabetic" fill="rgb(0, 0, 0)" fill-opacity="1" stroke="none" text-anchor="start" x="423" y="369">w</text><path fill="rgb(77, 77, 255)" fill-opacity="1" stroke="none" d="M 166.556 498.771 C 166.556 501.533 164.318 503.771 161.556 503.771 C 158.795 503.771 156.556 501.533 156.556 498.771 C 156.556 496.01 158.795 493.771 161.556 493.771 C 164.318 493.771 166.556 496.01 166.556 498.771 Z" paint-order="stroke fill markers" /><path fill="none" stroke="rgb(0, 0, 0)" stroke-linecap="round" stroke-linejoin="round" stroke-miterlimit="10" stroke-opacity="1" d="M 166.556 498.771 C 166.556 501.533 164.318 503.771 161.556 503.771 C 158.795 503.771 156.556 501.533 156.556 498.771 C 156.556 496.01 158.795 493.771 161.556 493.771 C 164.318 493.771 166.556 496.01 166.556 498.771 Z" paint-order="fill stroke markers" /><text font-family="geogebra-sans-serif, sans-serif" font-size="16px" font-style="normal" font-weight="normal" text-decoration="normal" dominant-baseline="alphabetic" fill="rgb(77, 77, 255)" fill-opacity="1" stroke="none" text-anchor="start" x="166" y="489">O</text><text font-family="geogebra-sans-serif, sans-serif" font-size="16px" font-style="normal" font-weight="normal" text-decoration="normal" dominant-baseline="alphabetic" fill="none" stroke="rgb(255, 255, 255)" stroke-linejoin="bevel" stroke-miterlimit="10" stroke-opacity="1" stroke-width="3" text-anchor="start" x="166" y="489">O</text><text font-family="geogebra-sans-serif, sans-serif" font-size="16px" font-style="normal" font-weight="normal" text-decoration="normal" dominant-baseline="alphabetic" fill="rgb(77, 77, 255)" fill-opacity="1" stroke="none" text-anchor="start" x="166" y="489">O</text><path fill="rgb(77, 77, 255)" fill-opacity="1" stroke="none" d="M 424.336 112.102 C 424.336 114.863 422.098 117.102 419.336 117.102 C 416.575 117.102 414.336 114.863 414.336 112.102 C 414.336 109.34 416.575 107.102 419.336 107.102 C 422.098 107.102 424.336 109.34 424.336 112.102 Z" paint-order="stroke fill markers" /><path fill="none" stroke="rgb(0, 0, 0)" stroke-linecap="round" stroke-linejoin="round" stroke-miterlimit="10" stroke-opacity="1" d="M 424.336 112.102 C 424.336 114.863 422.098 117.102 419.336 117.102 C 416.575 117.102 414.336 114.863 414.336 112.102 C 414.336 109.34 416.575 107.102 419.336 107.102 C 422.098 107.102 424.336 109.34 424.336 112.102 Z" paint-order="fill stroke markers" /><text font-family="geogebra-sans-serif, sans-serif" font-size="16px" font-style="normal" font-weight="normal" text-decoration="normal" dominant-baseline="alphabetic" fill="rgb(77, 77, 255)" fill-opacity="1" stroke="none" text-anchor="start" x="423" y="102">B</text><text font-family="geogebra-sans-serif, sans-serif" font-size="16px" font-style="normal" font-weight="normal" text-decoration="normal" dominant-baseline="alphabetic" fill="none" stroke="rgb(255, 255, 255)" stroke-linejoin="bevel" stroke-miterlimit="10" stroke-opacity="1" stroke-width="3" text-anchor="start" x="423" y="102">B</text><text font-family="geogebra-sans-serif, sans-serif" font-size="16px" font-style="normal" font-weight="normal" text-decoration="normal" dominant-baseline="alphabetic" fill="rgb(77, 77, 255)" fill-opacity="1" stroke="none" text-anchor="start" x="423" y="102">B</text><path fill="rgb(77, 77, 255)" fill-opacity="1" stroke="none" d="M 424.336 627.661 C 424.336 630.423 422.098 632.661 419.336 632.661 C 416.575 632.661 414.336 630.423 414.336 627.661 C 414.336 624.9 416.575 622.661 419.336 622.661 C 422.098 622.661 424.336 624.9 424.336 627.661 Z" paint-order="stroke fill markers" /><path fill="none" stroke="rgb(0, 0, 0)" stroke-linecap="round" stroke-linejoin="round" stroke-miterlimit="10" stroke-opacity="1" d="M 424.336 627.661 C 424.336 630.423 422.098 632.661 419.336 632.661 C 416.575 632.661 414.336 630.423 414.336 627.661 C 414.336 624.9 416.575 622.661 419.336 622.661 C 422.098 622.661 424.336 624.9 424.336 627.661 Z" paint-order="fill stroke markers" /><text font-family="geogebra-sans-serif, sans-serif" font-size="16px" font-style="normal" font-weight="normal" text-decoration="normal" dominant-baseline="alphabetic" fill="rgb(77, 77, 255)" fill-opacity="1" stroke="none" text-anchor="start" x="423" y="618">A</text><text font-family="geogebra-sans-serif, sans-serif" font-size="16px" font-style="normal" font-weight="normal" text-decoration="normal" dominant-baseline="alphabetic" fill="none" stroke="rgb(255, 255, 255)" stroke-linejoin="bevel" stroke-miterlimit="10" stroke-opacity="1" stroke-width="3" text-anchor="start" x="423" y="618">A</text><text font-family="geogebra-sans-serif, sans-serif" font-size="16px" font-style="normal" font-weight="normal" text-decoration="normal" dominant-baseline="alphabetic" fill="rgb(77, 77, 255)" fill-opacity="1" stroke="none" text-anchor="start" x="423" y="618">A</text></g></g></svg>